<mxfile host="app.diagrams.net" modified="2023-10-14T15:39:00.143Z" agent="Mozilla/5.0 (Windows NT 10.0; Win64; x64; rv:109.0) Gecko/20100101 Firefox/118.0" etag="2I-0GPX4_k3PquszsgH4" version="22.0.4" type="github">
  <diagram name="Page-1" id="itwYERoQudqhnsd-mv7y">
    <mxGraphModel dx="428" dy="766" grid="1" gridSize="10" guides="1" tooltips="1" connect="1" arrows="1" fold="1" page="1" pageScale="1" pageWidth="850" pageHeight="1100" math="0" shadow="0">
      <root>
        <mxCell id="0" />
        <mxCell id="1" parent="0" />
        <mxCell id="r1LKBEntduyNvz59-6L1-3" style="edgeStyle=orthogonalEdgeStyle;rounded=0;orthogonalLoop=1;jettySize=auto;html=1;" edge="1" parent="1" source="r1LKBEntduyNvz59-6L1-2" target="r1LKBEntduyNvz59-6L1-4">
          <mxGeometry relative="1" as="geometry">
            <mxPoint x="190" y="90" as="targetPoint" />
          </mxGeometry>
        </mxCell>
        <mxCell id="r1LKBEntduyNvz59-6L1-2" value="" style="ellipse;whiteSpace=wrap;html=1;aspect=fixed;" vertex="1" parent="1">
          <mxGeometry x="40" y="50" width="80" height="80" as="geometry" />
        </mxCell>
        <mxCell id="r1LKBEntduyNvz59-6L1-5" style="edgeStyle=orthogonalEdgeStyle;rounded=0;orthogonalLoop=1;jettySize=auto;html=1;" edge="1" parent="1" source="r1LKBEntduyNvz59-6L1-4" target="r1LKBEntduyNvz59-6L1-6">
          <mxGeometry relative="1" as="geometry">
            <mxPoint x="340" y="90" as="targetPoint" />
          </mxGeometry>
        </mxCell>
        <mxCell id="r1LKBEntduyNvz59-6L1-4" value="N = 0" style="rounded=1;whiteSpace=wrap;html=1;" vertex="1" parent="1">
          <mxGeometry x="170" y="60" width="120" height="60" as="geometry" />
        </mxCell>
        <mxCell id="r1LKBEntduyNvz59-6L1-7" style="edgeStyle=orthogonalEdgeStyle;rounded=0;orthogonalLoop=1;jettySize=auto;html=1;" edge="1" parent="1" source="r1LKBEntduyNvz59-6L1-6" target="r1LKBEntduyNvz59-6L1-8">
          <mxGeometry relative="1" as="geometry">
            <mxPoint x="390" y="190" as="targetPoint" />
          </mxGeometry>
        </mxCell>
        <mxCell id="r1LKBEntduyNvz59-6L1-6" value="User inputs number" style="shape=parallelogram;perimeter=parallelogramPerimeter;whiteSpace=wrap;html=1;fixedSize=1;" vertex="1" parent="1">
          <mxGeometry x="330" y="60" width="120" height="60" as="geometry" />
        </mxCell>
        <mxCell id="r1LKBEntduyNvz59-6L1-9" value="T" style="edgeStyle=orthogonalEdgeStyle;rounded=0;orthogonalLoop=1;jettySize=auto;html=1;" edge="1" parent="1" source="r1LKBEntduyNvz59-6L1-8" target="r1LKBEntduyNvz59-6L1-10">
          <mxGeometry relative="1" as="geometry">
            <mxPoint x="190" y="220" as="targetPoint" />
          </mxGeometry>
        </mxCell>
        <mxCell id="r1LKBEntduyNvz59-6L1-13" value="F" style="edgeStyle=orthogonalEdgeStyle;rounded=0;orthogonalLoop=1;jettySize=auto;html=1;" edge="1" parent="1" source="r1LKBEntduyNvz59-6L1-8" target="r1LKBEntduyNvz59-6L1-14">
          <mxGeometry relative="1" as="geometry">
            <mxPoint x="520" y="220" as="targetPoint" />
          </mxGeometry>
        </mxCell>
        <mxCell id="r1LKBEntduyNvz59-6L1-8" value="N &amp;lt; 2" style="rhombus;whiteSpace=wrap;html=1;" vertex="1" parent="1">
          <mxGeometry x="350" y="180" width="80" height="80" as="geometry" />
        </mxCell>
        <mxCell id="r1LKBEntduyNvz59-6L1-11" style="edgeStyle=orthogonalEdgeStyle;rounded=0;orthogonalLoop=1;jettySize=auto;html=1;" edge="1" parent="1" source="r1LKBEntduyNvz59-6L1-10" target="r1LKBEntduyNvz59-6L1-12">
          <mxGeometry relative="1" as="geometry">
            <mxPoint x="150" y="300" as="targetPoint" />
          </mxGeometry>
        </mxCell>
        <mxCell id="r1LKBEntduyNvz59-6L1-10" value="Print &quot;Not prime&quot;" style="shape=parallelogram;perimeter=parallelogramPerimeter;whiteSpace=wrap;html=1;fixedSize=1;" vertex="1" parent="1">
          <mxGeometry x="160" y="190" width="120" height="60" as="geometry" />
        </mxCell>
        <mxCell id="r1LKBEntduyNvz59-6L1-12" value="" style="ellipse;whiteSpace=wrap;html=1;aspect=fixed;fillColor=#ffe6cc;strokeColor=#d79b00;" vertex="1" parent="1">
          <mxGeometry x="180" y="310" width="80" height="80" as="geometry" />
        </mxCell>
        <mxCell id="r1LKBEntduyNvz59-6L1-15" value="T" style="edgeStyle=orthogonalEdgeStyle;rounded=0;orthogonalLoop=1;jettySize=auto;html=1;" edge="1" parent="1" source="r1LKBEntduyNvz59-6L1-14" target="r1LKBEntduyNvz59-6L1-16">
          <mxGeometry relative="1" as="geometry">
            <mxPoint x="670" y="220" as="targetPoint" />
          </mxGeometry>
        </mxCell>
        <mxCell id="r1LKBEntduyNvz59-6L1-19" value="F" style="edgeStyle=orthogonalEdgeStyle;rounded=0;orthogonalLoop=1;jettySize=auto;html=1;" edge="1" parent="1" source="r1LKBEntduyNvz59-6L1-14">
          <mxGeometry relative="1" as="geometry">
            <mxPoint x="530" y="320" as="targetPoint" />
          </mxGeometry>
        </mxCell>
        <mxCell id="r1LKBEntduyNvz59-6L1-14" value="N equal to 2" style="rhombus;whiteSpace=wrap;html=1;" vertex="1" parent="1">
          <mxGeometry x="490" y="180" width="80" height="80" as="geometry" />
        </mxCell>
        <mxCell id="r1LKBEntduyNvz59-6L1-17" style="edgeStyle=orthogonalEdgeStyle;rounded=0;orthogonalLoop=1;jettySize=auto;html=1;" edge="1" parent="1" source="r1LKBEntduyNvz59-6L1-16" target="r1LKBEntduyNvz59-6L1-18">
          <mxGeometry relative="1" as="geometry">
            <mxPoint x="680" y="300" as="targetPoint" />
          </mxGeometry>
        </mxCell>
        <mxCell id="r1LKBEntduyNvz59-6L1-16" value="Print &quot;Prime&quot;" style="shape=parallelogram;perimeter=parallelogramPerimeter;whiteSpace=wrap;html=1;fixedSize=1;" vertex="1" parent="1">
          <mxGeometry x="620" y="190" width="120" height="60" as="geometry" />
        </mxCell>
        <mxCell id="r1LKBEntduyNvz59-6L1-18" value="" style="ellipse;whiteSpace=wrap;html=1;aspect=fixed;fillColor=#ffe6cc;strokeColor=#d79b00;" vertex="1" parent="1">
          <mxGeometry x="760" y="260" width="80" height="80" as="geometry" />
        </mxCell>
        <mxCell id="r1LKBEntduyNvz59-6L1-23" style="edgeStyle=orthogonalEdgeStyle;rounded=0;orthogonalLoop=1;jettySize=auto;html=1;entryX=0.5;entryY=0;entryDx=0;entryDy=0;" edge="1" parent="1" source="r1LKBEntduyNvz59-6L1-21" target="r1LKBEntduyNvz59-6L1-22">
          <mxGeometry relative="1" as="geometry" />
        </mxCell>
        <mxCell id="r1LKBEntduyNvz59-6L1-21" value="D = 0" style="rounded=1;whiteSpace=wrap;html=1;" vertex="1" parent="1">
          <mxGeometry x="485" y="320" width="90" height="40" as="geometry" />
        </mxCell>
        <mxCell id="r1LKBEntduyNvz59-6L1-24" value="T" style="edgeStyle=orthogonalEdgeStyle;rounded=0;orthogonalLoop=1;jettySize=auto;html=1;" edge="1" parent="1" source="r1LKBEntduyNvz59-6L1-22">
          <mxGeometry relative="1" as="geometry">
            <mxPoint x="290" y="220" as="targetPoint" />
          </mxGeometry>
        </mxCell>
        <mxCell id="r1LKBEntduyNvz59-6L1-26" value="F" style="edgeStyle=orthogonalEdgeStyle;rounded=0;orthogonalLoop=1;jettySize=auto;html=1;" edge="1" parent="1" source="r1LKBEntduyNvz59-6L1-22">
          <mxGeometry x="-0.1111" relative="1" as="geometry">
            <mxPoint x="530" y="590" as="targetPoint" />
            <Array as="points">
              <mxPoint x="530" y="580" />
            </Array>
            <mxPoint as="offset" />
          </mxGeometry>
        </mxCell>
        <mxCell id="r1LKBEntduyNvz59-6L1-22" value="N divisible by D" style="rhombus;whiteSpace=wrap;html=1;" vertex="1" parent="1">
          <mxGeometry x="470" y="400" width="120" height="100" as="geometry" />
        </mxCell>
        <mxCell id="r1LKBEntduyNvz59-6L1-27" style="edgeStyle=orthogonalEdgeStyle;rounded=0;orthogonalLoop=1;jettySize=auto;html=1;exitX=0.5;exitY=0;exitDx=0;exitDy=0;" edge="1" parent="1" source="r1LKBEntduyNvz59-6L1-25">
          <mxGeometry relative="1" as="geometry">
            <mxPoint x="530" y="370" as="targetPoint" />
            <Array as="points">
              <mxPoint x="710" y="370" />
            </Array>
          </mxGeometry>
        </mxCell>
        <mxCell id="r1LKBEntduyNvz59-6L1-25" value="Increment D by 1" style="rounded=1;whiteSpace=wrap;html=1;" vertex="1" parent="1">
          <mxGeometry x="650" y="420" width="120" height="60" as="geometry" />
        </mxCell>
        <mxCell id="r1LKBEntduyNvz59-6L1-29" value="T" style="edgeStyle=orthogonalEdgeStyle;rounded=0;orthogonalLoop=1;jettySize=auto;html=1;entryX=0.5;entryY=1;entryDx=0;entryDy=0;" edge="1" parent="1" source="r1LKBEntduyNvz59-6L1-28" target="r1LKBEntduyNvz59-6L1-16">
          <mxGeometry relative="1" as="geometry">
            <Array as="points">
              <mxPoint x="800" y="630" />
              <mxPoint x="800" y="350" />
              <mxPoint x="680" y="350" />
            </Array>
          </mxGeometry>
        </mxCell>
        <mxCell id="r1LKBEntduyNvz59-6L1-30" value="F" style="edgeStyle=orthogonalEdgeStyle;rounded=0;orthogonalLoop=1;jettySize=auto;html=1;exitX=1;exitY=0;exitDx=0;exitDy=0;entryX=0.5;entryY=1;entryDx=0;entryDy=0;" edge="1" parent="1" source="r1LKBEntduyNvz59-6L1-28" target="r1LKBEntduyNvz59-6L1-25">
          <mxGeometry relative="1" as="geometry">
            <Array as="points">
              <mxPoint x="560" y="590" />
              <mxPoint x="710" y="590" />
            </Array>
          </mxGeometry>
        </mxCell>
        <mxCell id="r1LKBEntduyNvz59-6L1-28" value="D &amp;gt;= sqrt(N)" style="rhombus;whiteSpace=wrap;html=1;" vertex="1" parent="1">
          <mxGeometry x="470" y="590" width="120" height="80" as="geometry" />
        </mxCell>
      </root>
    </mxGraphModel>
  </diagram>
</mxfile>
